<svg width="569" height="265" viewBox="0 0 569 265" fill="none" xmlns="http://www.w3.org/2000/svg">
<path d="M0.714844 0H78.9114V178.359H0.714844V0Z" fill="#2B77A1"/>
<path d="M39.7783 185.398V178.357" stroke="#2B77A1" stroke-width="1.1256"/>
<path d="M23.1186 235.027L21.4572 230.266H22.0447L23.4968 234.555H23.2604L24.7867 230.266H25.2324L26.6777 234.555H26.4616L27.9541 230.266H28.5079L26.833 235.027H26.3333L24.9285 230.901H25.0704L23.6048 235.027H23.1186ZM30.3835 235.088C29.8522 235.088 29.4335 234.935 29.1273 234.629C28.8212 234.318 28.6681 233.888 28.6681 233.339C28.6681 232.983 28.7356 232.675 28.8707 232.414C29.0058 232.148 29.1949 231.943 29.438 231.799C29.6811 231.651 29.9603 231.576 30.2754 231.576C30.5861 231.576 30.8472 231.642 31.0588 231.772C31.2705 231.903 31.4325 232.09 31.5451 232.333C31.6577 232.571 31.7139 232.855 31.7139 233.184V233.386H29.0868V233.042H31.356L31.2412 233.13C31.2412 232.769 31.1602 232.488 30.9981 232.285C30.836 232.083 30.5951 231.981 30.2754 231.981C29.9378 231.981 29.6744 232.101 29.4853 232.339C29.2962 232.574 29.2016 232.891 29.2016 233.292V233.352C29.2016 233.776 29.3052 234.098 29.5123 234.318C29.7239 234.534 30.0188 234.642 30.397 234.642C30.5996 234.642 30.7887 234.613 30.9643 234.555C31.1444 234.492 31.3155 234.39 31.4776 234.251L31.6667 234.636C31.5181 234.78 31.329 234.892 31.0994 234.973C30.8742 235.05 30.6356 235.088 30.3835 235.088ZM32.551 235.027V230.057H33.0981V235.027H32.551ZM34.1603 235.027V230.057H34.7073V235.027H34.1603ZM36.8974 235.088C36.6272 235.088 36.3751 235.052 36.141 234.98C35.9069 234.904 35.7133 234.798 35.5602 234.663L35.7493 234.278C35.9159 234.408 36.096 234.505 36.2896 234.568C36.4877 234.631 36.6925 234.663 36.9041 234.663C37.1743 234.663 37.3769 234.615 37.512 234.521C37.6515 234.422 37.7213 234.287 37.7213 234.116C37.7213 233.985 37.6763 233.881 37.5863 233.805C37.5007 233.724 37.3589 233.661 37.1608 233.616L36.5327 233.488C36.2445 233.424 36.0284 233.319 35.8843 233.17C35.7403 233.017 35.6682 232.823 35.6682 232.589C35.6682 232.391 35.72 232.218 35.8236 232.069C35.9271 231.916 36.0779 231.797 36.2761 231.711C36.4742 231.621 36.706 231.576 36.9717 231.576C37.2193 231.576 37.4467 231.615 37.6538 231.691C37.8654 231.763 38.041 231.869 38.1806 232.008L37.9847 232.387C37.8496 232.256 37.6943 232.159 37.5187 232.096C37.3476 232.029 37.1698 231.995 36.9852 231.995C36.7195 231.995 36.5192 232.049 36.3841 232.157C36.2535 232.261 36.1883 232.398 36.1883 232.569C36.1883 232.7 36.2288 232.808 36.3098 232.893C36.3954 232.974 36.5259 233.035 36.7015 233.076L37.3296 233.204C37.6358 233.271 37.8632 233.377 38.0117 233.521C38.1648 233.661 38.2414 233.85 38.2414 234.089C38.2414 234.291 38.1851 234.469 38.0725 234.622C37.96 234.771 37.8024 234.886 37.5998 234.967C37.4017 235.048 37.1675 235.088 36.8974 235.088ZM40.9417 235.027V230.266H43.9133V230.725H41.5022V232.393H43.7647V232.853H41.5022V235.027H40.9417ZM45.8312 235.088C45.5296 235.088 45.2662 235.018 45.0411 234.879C44.8159 234.735 44.6404 234.532 44.5143 234.271C44.3927 234.01 44.3319 233.697 44.3319 233.332C44.3319 232.963 44.3927 232.648 44.5143 232.387C44.6404 232.126 44.8159 231.925 45.0411 231.786C45.2662 231.646 45.5296 231.576 45.8312 231.576C46.1374 231.576 46.4008 231.655 46.6214 231.813C46.8465 231.966 46.9951 232.175 47.0671 232.441H46.9861L47.0604 231.637H47.5872C47.5737 231.768 47.5602 231.9 47.5467 232.035C47.5376 232.166 47.5331 232.294 47.5331 232.42V235.027H46.9861V234.23H47.0604C46.9884 234.496 46.8398 234.705 46.6147 234.859C46.3895 235.012 46.1284 235.088 45.8312 235.088ZM45.9393 234.642C46.2635 234.642 46.5201 234.532 46.7092 234.311C46.8983 234.086 46.9929 233.76 46.9929 233.332C46.9929 232.9 46.8983 232.574 46.7092 232.353C46.5201 232.128 46.2635 232.015 45.9393 232.015C45.6196 232.015 45.363 232.128 45.1694 232.353C44.9803 232.574 44.8857 232.9 44.8857 233.332C44.8857 233.76 44.9803 234.086 45.1694 234.311C45.363 234.532 45.6196 234.642 45.9393 234.642ZM48.5773 235.027V232.454C48.5773 232.319 48.5728 232.182 48.5638 232.042C48.5593 231.903 48.5503 231.768 48.5368 231.637H49.0636L49.1311 232.461L49.0366 232.468C49.0816 232.265 49.1604 232.099 49.2729 231.968C49.3855 231.837 49.5183 231.741 49.6714 231.678C49.8245 231.61 49.9843 231.576 50.1509 231.576C50.2184 231.576 50.277 231.579 50.3265 231.583C50.3805 231.588 50.4301 231.599 50.4751 231.617L50.4683 232.103C50.4008 232.081 50.3378 232.067 50.2792 232.063C50.2252 232.054 50.1622 232.049 50.0901 232.049C49.892 232.049 49.7187 232.096 49.5701 232.191C49.426 232.285 49.3157 232.407 49.2392 232.556C49.1671 232.704 49.1311 232.862 49.1311 233.028V235.027H48.5773ZM52.4973 236.533C52.2046 236.533 51.9345 236.497 51.6868 236.425C51.4392 236.353 51.2163 236.243 51.0182 236.094L51.1803 235.682C51.3199 235.781 51.4572 235.86 51.5923 235.919C51.7273 235.977 51.8669 236.02 52.011 236.047C52.1551 236.079 52.3082 236.094 52.4702 236.094C52.8034 236.094 53.0556 236.007 53.2266 235.831C53.3977 235.655 53.4833 235.406 53.4833 235.081V234.089H53.5508C53.4788 234.354 53.3302 234.566 53.1051 234.723C52.88 234.877 52.6166 234.953 52.3149 234.953C52.0042 234.953 51.7341 234.886 51.5045 234.75C51.2794 234.611 51.1038 234.415 50.9777 234.163C50.8561 233.906 50.7953 233.605 50.7953 233.258C50.7953 232.916 50.8561 232.619 50.9777 232.366C51.1038 232.114 51.2794 231.921 51.5045 231.786C51.7341 231.646 52.0042 231.576 52.3149 231.576C52.6211 231.576 52.8845 231.653 53.1051 231.806C53.3302 231.959 53.4788 232.171 53.5508 232.441L53.4833 232.373L53.5441 231.637H54.0776C54.0596 231.768 54.0461 231.9 54.0371 232.035C54.0281 232.166 54.0236 232.294 54.0236 232.42V235.007C54.0236 235.511 53.893 235.892 53.6319 236.148C53.3752 236.405 52.997 236.533 52.4973 236.533ZM52.4162 234.507C52.7449 234.507 53.0038 234.399 53.1929 234.183C53.382 233.963 53.4765 233.654 53.4765 233.258C53.4765 232.862 53.382 232.556 53.1929 232.339C53.0038 232.123 52.7449 232.015 52.4162 232.015C52.092 232.015 51.8332 232.123 51.6395 232.339C51.4459 232.556 51.3491 232.862 51.3491 233.258C51.3491 233.654 51.4459 233.963 51.6395 234.183C51.8332 234.399 52.092 234.507 52.4162 234.507ZM56.4653 235.088C56.1411 235.088 55.8574 235.018 55.6143 234.879C55.3757 234.735 55.1911 234.532 55.0605 234.271C54.9299 234.005 54.8647 233.692 54.8647 233.332C54.8647 232.967 54.9299 232.655 55.0605 232.393C55.1911 232.132 55.3757 231.932 55.6143 231.792C55.8574 231.648 56.1411 231.576 56.4653 231.576C56.7939 231.576 57.0776 231.648 57.3162 231.792C57.5593 231.932 57.7462 232.132 57.8768 232.393C58.0118 232.655 58.0794 232.967 58.0794 233.332C58.0794 233.692 58.0118 234.005 57.8768 234.271C57.7462 234.532 57.5593 234.735 57.3162 234.879C57.0776 235.018 56.7939 235.088 56.4653 235.088ZM56.4653 234.642C56.7894 234.642 57.0461 234.532 57.2352 234.311C57.4243 234.086 57.5188 233.76 57.5188 233.332C57.5188 232.9 57.422 232.574 57.2284 232.353C57.0393 232.128 56.7849 232.015 56.4653 232.015C56.1456 232.015 55.8912 232.128 55.7021 232.353C55.513 232.574 55.4184 232.9 55.4184 233.332C55.4184 233.76 55.513 234.086 55.7021 234.311C55.8912 234.532 56.1456 234.642 56.4653 234.642Z" fill="#FFAC74"/>
<path d="M124.539 70.4033H202.8V178.357H124.539V70.4033Z" fill="#FFAC74"/>
<path d="M161.077 185.398V178.357" stroke="#B8B8B8" stroke-width="1.1256"/>
<path d="M139.267 235.396C138.884 235.396 138.542 235.346 138.24 235.247C137.938 235.148 137.675 235.006 137.45 234.822L137.652 234.376C137.81 234.493 137.968 234.592 138.125 234.673C138.287 234.75 138.461 234.808 138.645 234.849C138.83 234.885 139.037 234.903 139.267 234.903C139.667 234.903 139.964 234.828 140.158 234.68C140.352 234.531 140.448 234.333 140.448 234.086C140.448 233.874 140.381 233.712 140.246 233.599C140.111 233.487 139.874 233.397 139.537 233.329L138.828 233.187C138.391 233.097 138.064 232.951 137.848 232.748C137.637 232.546 137.531 232.271 137.531 231.924C137.531 231.641 137.603 231.393 137.747 231.181C137.896 230.97 138.103 230.806 138.368 230.688C138.634 230.571 138.942 230.513 139.294 230.513C139.631 230.513 139.94 230.565 140.219 230.668C140.498 230.767 140.737 230.914 140.935 231.107L140.739 231.539C140.527 231.35 140.304 231.215 140.07 231.134C139.841 231.049 139.579 231.006 139.287 231.006C138.918 231.006 138.625 231.087 138.409 231.249C138.197 231.407 138.091 231.623 138.091 231.897C138.091 232.118 138.159 232.291 138.294 232.417C138.429 232.539 138.652 232.631 138.963 232.694L139.678 232.836C140.138 232.931 140.475 233.073 140.692 233.262C140.908 233.451 141.016 233.716 141.016 234.059C141.016 234.32 140.944 234.552 140.8 234.754C140.66 234.957 140.46 235.114 140.199 235.227C139.937 235.339 139.627 235.396 139.267 235.396ZM143.049 235.396C142.716 235.396 142.462 235.301 142.286 235.112C142.11 234.918 142.023 234.628 142.023 234.241V232.37H141.361V231.945H142.023V231.019L142.57 230.864V231.945H143.542V232.37H142.57V234.18C142.57 234.45 142.615 234.644 142.705 234.761C142.799 234.873 142.939 234.93 143.123 234.93C143.209 234.93 143.286 234.923 143.353 234.909C143.421 234.891 143.481 234.871 143.535 234.849V235.308C143.472 235.335 143.396 235.355 143.306 235.369C143.22 235.387 143.135 235.396 143.049 235.396ZM145.498 235.396C145.196 235.396 144.933 235.326 144.708 235.186C144.483 235.042 144.307 234.84 144.181 234.579C144.06 234.317 143.999 234.005 143.999 233.64C143.999 233.271 144.06 232.955 144.181 232.694C144.307 232.433 144.483 232.233 144.708 232.093C144.933 231.954 145.196 231.884 145.498 231.884C145.804 231.884 146.068 231.963 146.288 232.12C146.513 232.273 146.662 232.483 146.734 232.748H146.653L146.727 231.945H147.254C147.241 232.075 147.227 232.208 147.213 232.343C147.204 232.474 147.2 232.602 147.2 232.728V235.335H146.653V234.538H146.727C146.655 234.804 146.507 235.013 146.281 235.166C146.056 235.319 145.795 235.396 145.498 235.396ZM145.606 234.95C145.93 234.95 146.187 234.84 146.376 234.619C146.565 234.394 146.66 234.068 146.66 233.64C146.66 233.208 146.565 232.881 146.376 232.661C146.187 232.435 145.93 232.323 145.606 232.323C145.286 232.323 145.03 232.435 144.836 232.661C144.647 232.881 144.553 233.208 144.553 233.64C144.553 234.068 144.647 234.394 144.836 234.619C145.03 234.84 145.286 234.95 145.606 234.95ZM149.46 235.396C149.127 235.396 148.872 235.301 148.697 235.112C148.521 234.918 148.433 234.628 148.433 234.241V232.37H147.771V231.945H148.433V231.019L148.98 230.864V231.945H149.953V232.37H148.98V234.18C148.98 234.45 149.025 234.644 149.115 234.761C149.21 234.873 149.349 234.93 149.534 234.93C149.62 234.93 149.696 234.923 149.764 234.909C149.831 234.891 149.892 234.871 149.946 234.849V235.308C149.883 235.335 149.806 235.355 149.716 235.369C149.631 235.387 149.545 235.396 149.46 235.396ZM152.092 235.396C151.561 235.396 151.142 235.243 150.836 234.936C150.53 234.626 150.376 234.196 150.376 233.647C150.376 233.291 150.444 232.982 150.579 232.721C150.714 232.456 150.903 232.251 151.146 232.107C151.389 231.958 151.669 231.884 151.984 231.884C152.294 231.884 152.556 231.949 152.767 232.08C152.979 232.21 153.141 232.397 153.253 232.64C153.366 232.879 153.422 233.163 153.422 233.491V233.694H150.795V233.349H153.064L152.95 233.437C152.95 233.077 152.869 232.796 152.706 232.593C152.544 232.39 152.303 232.289 151.984 232.289C151.646 232.289 151.383 232.408 151.194 232.647C151.005 232.881 150.91 233.199 150.91 233.599V233.66C150.91 234.083 151.014 234.405 151.221 234.626C151.432 234.842 151.727 234.95 152.105 234.95C152.308 234.95 152.497 234.921 152.673 234.862C152.853 234.799 153.024 234.698 153.186 234.558L153.375 234.943C153.226 235.087 153.037 235.2 152.808 235.281C152.583 235.357 152.344 235.396 152.092 235.396ZM156.081 235.335V230.574H159.12V231.033H156.628V232.688H158.972V233.154H156.628V234.869H159.12V235.335H156.081ZM159.991 235.335V232.728C159.991 232.602 159.984 232.474 159.97 232.343C159.961 232.208 159.95 232.075 159.937 231.945H160.463L160.531 232.688H160.45C160.54 232.431 160.682 232.233 160.875 232.093C161.074 231.954 161.312 231.884 161.591 231.884C161.875 231.884 162.105 231.951 162.28 232.086C162.46 232.222 162.582 232.431 162.645 232.715H162.544C162.629 232.458 162.78 232.255 162.996 232.107C163.212 231.958 163.464 231.884 163.752 231.884C164.126 231.884 164.408 231.992 164.597 232.208C164.786 232.42 164.88 232.755 164.88 233.214V235.335H164.333V233.248C164.333 232.928 164.277 232.697 164.164 232.552C164.052 232.404 163.872 232.33 163.624 232.33C163.341 232.33 163.115 232.429 162.949 232.627C162.787 232.82 162.706 233.082 162.706 233.41V235.335H162.159V233.248C162.159 232.928 162.102 232.697 161.99 232.552C161.877 232.404 161.697 232.33 161.449 232.33C161.166 232.33 160.943 232.429 160.781 232.627C160.619 232.82 160.538 233.082 160.538 233.41V235.335H159.991ZM165.92 236.794V232.728C165.92 232.602 165.913 232.474 165.9 232.343C165.891 232.208 165.879 232.075 165.866 231.945H166.393L166.467 232.748H166.386C166.458 232.483 166.604 232.273 166.825 232.12C167.046 231.963 167.309 231.884 167.615 231.884C167.921 231.884 168.185 231.954 168.405 232.093C168.63 232.233 168.806 232.433 168.932 232.694C169.058 232.955 169.121 233.271 169.121 233.64C169.121 234.005 169.058 234.317 168.932 234.579C168.81 234.84 168.637 235.042 168.412 235.186C168.187 235.326 167.921 235.396 167.615 235.396C167.313 235.396 167.052 235.319 166.832 235.166C166.611 235.013 166.465 234.804 166.393 234.538H166.467V236.794H165.92ZM167.507 234.95C167.831 234.95 168.088 234.84 168.277 234.619C168.471 234.394 168.567 234.068 168.567 233.64C168.567 233.208 168.471 232.881 168.277 232.661C168.088 232.435 167.831 232.323 167.507 232.323C167.187 232.323 166.931 232.435 166.737 232.661C166.548 232.881 166.453 233.208 166.453 233.64C166.453 234.068 166.548 234.394 166.737 234.619C166.931 234.84 167.187 234.95 167.507 234.95ZM169.969 235.335V230.364H170.516V235.335H169.969ZM172.97 235.396C172.646 235.396 172.362 235.326 172.119 235.186C171.88 235.042 171.696 234.84 171.565 234.579C171.435 234.313 171.369 234 171.369 233.64C171.369 233.275 171.435 232.962 171.565 232.701C171.696 232.44 171.88 232.24 172.119 232.1C172.362 231.956 172.646 231.884 172.97 231.884C173.299 231.884 173.582 231.956 173.821 232.1C174.064 232.24 174.251 232.44 174.381 232.701C174.517 232.962 174.584 233.275 174.584 233.64C174.584 234 174.517 234.313 174.381 234.579C174.251 234.84 174.064 235.042 173.821 235.186C173.582 235.326 173.299 235.396 172.97 235.396ZM172.97 234.95C173.294 234.95 173.551 234.84 173.74 234.619C173.929 234.394 174.023 234.068 174.023 233.64C174.023 233.208 173.927 232.881 173.733 232.661C173.544 232.435 173.29 232.323 172.97 232.323C172.65 232.323 172.396 232.435 172.207 232.661C172.018 232.881 171.923 233.208 171.923 233.64C171.923 234.068 172.018 234.394 172.207 234.619C172.396 234.84 172.65 234.95 172.97 234.95ZM175.256 236.868L175.127 236.416C175.339 236.366 175.515 236.307 175.654 236.24C175.798 236.177 175.918 236.091 176.012 235.983C176.107 235.875 176.188 235.74 176.255 235.578L176.431 235.18L176.417 235.409L174.938 231.945H175.533L176.755 234.923H176.579L177.788 231.945H178.362L176.796 235.619C176.705 235.835 176.606 236.015 176.498 236.159C176.39 236.307 176.273 236.427 176.147 236.517C176.026 236.611 175.891 236.686 175.742 236.74C175.593 236.794 175.431 236.837 175.256 236.868ZM180.439 235.396C179.907 235.396 179.489 235.243 179.182 234.936C178.876 234.626 178.723 234.196 178.723 233.647C178.723 233.291 178.791 232.982 178.926 232.721C179.061 232.456 179.25 232.251 179.493 232.107C179.736 231.958 180.015 231.884 180.33 231.884C180.641 231.884 180.902 231.949 181.114 232.08C181.325 232.21 181.488 232.397 181.6 232.64C181.713 232.879 181.769 233.163 181.769 233.491V233.694H179.142V233.349H181.411L181.296 233.437C181.296 233.077 181.215 232.796 181.053 232.593C180.891 232.39 180.65 232.289 180.33 232.289C179.993 232.289 179.729 232.408 179.54 232.647C179.351 232.881 179.257 233.199 179.257 233.599V233.66C179.257 234.083 179.36 234.405 179.567 234.626C179.779 234.842 180.074 234.95 180.452 234.95C180.655 234.95 180.844 234.921 181.019 234.862C181.199 234.799 181.371 234.698 181.533 234.558L181.722 234.943C181.573 235.087 181.384 235.2 181.154 235.281C180.929 235.357 180.691 235.396 180.439 235.396ZM184.112 235.396C183.581 235.396 183.162 235.243 182.856 234.936C182.55 234.626 182.397 234.196 182.397 233.647C182.397 233.291 182.464 232.982 182.599 232.721C182.734 232.456 182.923 232.251 183.167 232.107C183.41 231.958 183.689 231.884 184.004 231.884C184.315 231.884 184.576 231.949 184.787 232.08C184.999 232.21 185.161 232.397 185.274 232.64C185.386 232.879 185.443 233.163 185.443 233.491V233.694H182.815V233.349H185.085L184.97 233.437C184.97 233.077 184.889 232.796 184.727 232.593C184.565 232.39 184.324 232.289 184.004 232.289C183.666 232.289 183.403 232.408 183.214 232.647C183.025 232.881 182.93 233.199 182.93 233.599V233.66C182.93 234.083 183.034 234.405 183.241 234.626C183.453 234.842 183.747 234.95 184.126 234.95C184.328 234.95 184.517 234.921 184.693 234.862C184.873 234.799 185.044 234.698 185.206 234.558L185.395 234.943C185.247 235.087 185.058 235.2 184.828 235.281C184.603 235.357 184.364 235.396 184.112 235.396ZM187.407 235.396C187.137 235.396 186.885 235.36 186.651 235.288C186.417 235.211 186.223 235.105 186.07 234.97L186.259 234.585C186.426 234.716 186.606 234.813 186.8 234.876C186.998 234.939 187.203 234.97 187.414 234.97C187.684 234.97 187.887 234.923 188.022 234.828C188.162 234.729 188.231 234.594 188.231 234.423C188.231 234.293 188.186 234.189 188.096 234.113C188.011 234.032 187.869 233.968 187.671 233.923L187.043 233.795C186.755 233.732 186.539 233.626 186.394 233.478C186.25 233.325 186.178 233.131 186.178 232.897C186.178 232.699 186.23 232.525 186.334 232.377C186.437 232.224 186.588 232.104 186.786 232.019C186.984 231.929 187.216 231.884 187.482 231.884C187.729 231.884 187.957 231.922 188.164 231.999C188.376 232.071 188.551 232.177 188.691 232.316L188.495 232.694C188.36 232.564 188.204 232.467 188.029 232.404C187.858 232.336 187.68 232.303 187.495 232.303C187.23 232.303 187.029 232.357 186.894 232.465C186.764 232.568 186.698 232.706 186.698 232.877C186.698 233.007 186.739 233.115 186.82 233.201C186.905 233.282 187.036 233.343 187.212 233.383L187.84 233.511C188.146 233.579 188.373 233.685 188.522 233.829C188.675 233.968 188.751 234.158 188.751 234.396C188.751 234.599 188.695 234.777 188.583 234.93C188.47 235.078 188.312 235.193 188.11 235.274C187.912 235.355 187.678 235.396 187.407 235.396Z" fill="#FFAC74"/>
<path d="M244.305 131.42H322.501V178.356H244.305V131.42Z" fill="#FFAC74"/>
<path d="M283.596 185.398V178.357" stroke="#B8B8B8" stroke-width="1.1256"/>
<path d="M276.967 235.027V230.266H278.905C279.405 230.266 279.79 230.388 280.06 230.631C280.33 230.869 280.465 231.203 280.465 231.63C280.465 232.049 280.33 232.382 280.06 232.63C279.79 232.873 279.405 232.995 278.905 232.995H277.527V235.027H276.967ZM277.527 232.529H278.851C279.198 232.529 279.459 232.45 279.634 232.292C279.814 232.135 279.905 231.914 279.905 231.63C279.905 231.342 279.814 231.119 279.634 230.962C279.459 230.804 279.198 230.725 278.851 230.725H277.527V232.529ZM281.366 235.027V230.266H281.805L284.857 234.318H284.702V230.266H285.222V235.027H284.79L281.737 230.975H281.886V235.027H281.366ZM288.485 235.088C288.007 235.088 287.602 234.989 287.269 234.791C286.936 234.593 286.679 234.311 286.499 233.947C286.323 233.582 286.236 233.148 286.236 232.643C286.236 232.139 286.323 231.707 286.499 231.347C286.679 230.982 286.936 230.701 287.269 230.502C287.602 230.304 288.007 230.205 288.485 230.205C288.822 230.205 289.124 230.257 289.39 230.361C289.655 230.464 289.887 230.615 290.085 230.813L289.876 231.259C289.66 231.07 289.446 230.932 289.234 230.847C289.023 230.757 288.775 230.712 288.491 230.712C287.946 230.712 287.532 230.881 287.249 231.218C286.965 231.556 286.823 232.031 286.823 232.643C286.823 233.256 286.965 233.733 287.249 234.075C287.532 234.413 287.946 234.582 288.491 234.582C288.775 234.582 289.023 234.539 289.234 234.453C289.446 234.363 289.66 234.221 289.876 234.028L290.085 234.48C289.887 234.674 289.655 234.825 289.39 234.933C289.124 235.036 288.822 235.088 288.485 235.088Z" fill="#FFAC74"/>
<path d="M366.1 70.4033H444.296V178.357H366.1V70.4033Z" fill="#FFAC74"/>
<path d="M406.088 185.398V178.357" stroke="#B8B8B8" stroke-width="1.1256"/>
<path d="M393.518 235.088C393.136 235.088 392.794 235.039 392.492 234.94C392.19 234.84 391.927 234.699 391.702 234.514L391.904 234.068C392.062 234.185 392.22 234.284 392.377 234.365C392.539 234.442 392.713 234.501 392.897 234.541C393.082 234.577 393.289 234.595 393.518 234.595C393.919 234.595 394.216 234.521 394.41 234.372C394.604 234.224 394.7 234.026 394.7 233.778C394.7 233.566 394.633 233.404 394.498 233.292C394.363 233.179 394.126 233.089 393.789 233.022L393.08 232.88C392.643 232.79 392.316 232.643 392.1 232.441C391.889 232.238 391.783 231.963 391.783 231.617C391.783 231.333 391.855 231.085 391.999 230.874C392.148 230.662 392.355 230.498 392.62 230.381C392.886 230.264 393.194 230.205 393.546 230.205C393.883 230.205 394.192 230.257 394.471 230.361C394.75 230.46 394.989 230.606 395.187 230.8L394.991 231.232C394.779 231.043 394.556 230.908 394.322 230.827C394.093 230.741 393.831 230.698 393.539 230.698C393.17 230.698 392.877 230.779 392.661 230.941C392.449 231.099 392.343 231.315 392.343 231.59C392.343 231.81 392.411 231.984 392.546 232.11C392.681 232.231 392.904 232.324 393.215 232.387L393.93 232.529C394.39 232.623 394.727 232.765 394.943 232.954C395.16 233.143 395.268 233.409 395.268 233.751C395.268 234.012 395.196 234.244 395.052 234.447C394.912 234.649 394.712 234.807 394.45 234.919C394.189 235.032 393.879 235.088 393.518 235.088ZM397.308 235.088C396.907 235.088 396.603 234.978 396.396 234.757C396.193 234.537 396.092 234.199 396.092 233.744V231.637H396.639V233.731C396.639 234.041 396.702 234.271 396.828 234.42C396.954 234.564 397.15 234.636 397.416 234.636C397.713 234.636 397.951 234.539 398.132 234.345C398.312 234.152 398.402 233.893 398.402 233.569V231.637H398.949V235.027H398.415V234.264H398.503C398.408 234.525 398.255 234.728 398.044 234.872C397.837 235.016 397.591 235.088 397.308 235.088ZM400.01 235.027V232.42C400.01 232.294 400.003 232.166 399.99 232.035C399.981 231.9 399.969 231.768 399.956 231.637H400.483L400.55 232.38H400.469C400.568 232.119 400.726 231.921 400.942 231.786C401.163 231.646 401.417 231.576 401.705 231.576C402.106 231.576 402.408 231.684 402.61 231.9C402.817 232.112 402.921 232.447 402.921 232.907V235.027H402.374V232.94C402.374 232.621 402.308 232.389 402.178 232.245C402.052 232.096 401.854 232.022 401.584 232.022C401.268 232.022 401.019 232.119 400.834 232.312C400.649 232.506 400.557 232.765 400.557 233.089V235.027H400.01ZM405.183 235.027V230.739H403.501V230.266H407.418V230.739H405.743V235.027H405.183ZM407.515 235.027V232.454C407.515 232.319 407.511 232.182 407.502 232.042C407.497 231.903 407.488 231.768 407.475 231.637H408.001L408.069 232.461L407.974 232.468C408.019 232.265 408.098 232.099 408.211 231.968C408.323 231.837 408.456 231.741 408.609 231.678C408.762 231.61 408.922 231.576 409.089 231.576C409.156 231.576 409.215 231.579 409.264 231.583C409.318 231.588 409.368 231.599 409.413 231.617L409.406 232.103C409.339 232.081 409.276 232.067 409.217 232.063C409.163 232.054 409.1 232.049 409.028 232.049C408.83 232.049 408.657 232.096 408.508 232.191C408.364 232.285 408.254 232.407 408.177 232.556C408.105 232.704 408.069 232.862 408.069 233.028V235.027H407.515ZM411.178 235.088C410.777 235.088 410.473 234.978 410.266 234.757C410.063 234.537 409.962 234.199 409.962 233.744V231.637H410.509V233.731C410.509 234.041 410.572 234.271 410.698 234.42C410.824 234.564 411.02 234.636 411.286 234.636C411.583 234.636 411.821 234.539 412.001 234.345C412.182 234.152 412.272 233.893 412.272 233.569V231.637H412.819V235.027H412.285V234.264H412.373C412.278 234.525 412.125 234.728 411.914 234.872C411.707 235.016 411.461 235.088 411.178 235.088ZM415.008 235.088C414.738 235.088 414.486 235.052 414.251 234.98C414.017 234.904 413.824 234.798 413.671 234.663L413.86 234.278C414.026 234.408 414.206 234.505 414.4 234.568C414.598 234.631 414.803 234.663 415.015 234.663C415.285 234.663 415.487 234.615 415.622 234.521C415.762 234.422 415.832 234.287 415.832 234.116C415.832 233.985 415.787 233.881 415.697 233.805C415.611 233.724 415.469 233.661 415.271 233.616L414.643 233.488C414.355 233.424 414.139 233.319 413.995 233.17C413.851 233.017 413.779 232.823 413.779 232.589C413.779 232.391 413.83 232.218 413.934 232.069C414.038 231.916 414.188 231.797 414.386 231.711C414.585 231.621 414.816 231.576 415.082 231.576C415.33 231.576 415.557 231.615 415.764 231.691C415.976 231.763 416.151 231.869 416.291 232.008L416.095 232.387C415.96 232.256 415.805 232.159 415.629 232.096C415.458 232.029 415.28 231.995 415.096 231.995C414.83 231.995 414.63 232.049 414.495 232.157C414.364 232.261 414.299 232.398 414.299 232.569C414.299 232.7 414.339 232.808 414.42 232.893C414.506 232.974 414.636 233.035 414.812 233.076L415.44 233.204C415.746 233.271 415.974 233.377 416.122 233.521C416.275 233.661 416.352 233.85 416.352 234.089C416.352 234.291 416.295 234.469 416.183 234.622C416.07 234.771 415.913 234.886 415.71 234.967C415.512 235.048 415.278 235.088 415.008 235.088ZM418.4 235.088C418.066 235.088 417.812 234.994 417.636 234.804C417.461 234.611 417.373 234.32 417.373 233.933V232.063H416.711V231.637H417.373V230.712L417.92 230.556V231.637H418.893V232.063H417.92V233.872C417.92 234.143 417.965 234.336 418.055 234.453C418.15 234.566 418.289 234.622 418.474 234.622C418.559 234.622 418.636 234.615 418.703 234.602C418.771 234.584 418.832 234.564 418.886 234.541V235C418.823 235.027 418.746 235.048 418.656 235.061C418.571 235.079 418.485 235.088 418.4 235.088Z" fill="#FFAC74"/>
<path d="M487.895 13.1416H566.156V178.358H487.895V13.1416Z" fill="#FFAC74"/>
<path d="M528.973 185.398V178.357" stroke="#B8B8B8" stroke-width="1.1256"/>
<path d="M518.452 235.027V230.266H521.423V230.725H519.012V232.393H521.275V232.853H519.012V235.027H518.452ZM522.183 235.027V231.637H522.73V235.027H522.183ZM522.116 230.867V230.253H522.791V230.867H522.116ZM525.075 235.088C524.778 235.088 524.517 235.018 524.292 234.879C524.067 234.735 523.891 234.532 523.765 234.271C523.644 234.01 523.583 233.697 523.583 233.332C523.583 232.963 523.644 232.648 523.765 232.387C523.891 232.126 524.067 231.925 524.292 231.786C524.517 231.646 524.778 231.576 525.075 231.576C525.382 231.576 525.645 231.653 525.866 231.806C526.091 231.959 526.242 232.166 526.318 232.427H526.237V230.057H526.784V235.027H526.244V234.217H526.318C526.246 234.487 526.098 234.701 525.872 234.859C525.647 235.012 525.382 235.088 525.075 235.088ZM525.19 234.642C525.51 234.642 525.767 234.532 525.96 234.311C526.154 234.086 526.251 233.76 526.251 233.332C526.251 232.9 526.154 232.574 525.96 232.353C525.767 232.128 525.51 232.015 525.19 232.015C524.871 232.015 524.614 232.128 524.42 232.353C524.231 232.574 524.137 232.9 524.137 233.332C524.137 233.76 524.231 234.086 524.42 234.311C524.614 234.532 524.871 234.642 525.19 234.642ZM529.348 235.088C528.817 235.088 528.398 234.935 528.092 234.629C527.786 234.318 527.632 233.888 527.632 233.339C527.632 232.983 527.7 232.675 527.835 232.414C527.97 232.148 528.159 231.943 528.402 231.799C528.646 231.651 528.925 231.576 529.24 231.576C529.55 231.576 529.812 231.642 530.023 231.772C530.235 231.903 530.397 232.09 530.509 232.333C530.622 232.571 530.678 232.855 530.678 233.184V233.386H528.051V233.042H530.32L530.206 233.13C530.206 232.769 530.125 232.488 529.962 232.285C529.8 232.083 529.559 231.981 529.24 231.981C528.902 231.981 528.639 232.101 528.45 232.339C528.261 232.574 528.166 232.891 528.166 233.292V233.352C528.166 233.776 528.27 234.098 528.477 234.318C528.688 234.534 528.983 234.642 529.361 234.642C529.564 234.642 529.753 234.613 529.929 234.555C530.109 234.492 530.28 234.39 530.442 234.251L530.631 234.636C530.482 234.78 530.293 234.892 530.064 234.973C529.839 235.05 529.6 235.088 529.348 235.088ZM531.515 235.027V230.057H532.062V235.027H531.515ZM533.125 235.027V231.637H533.672V235.027H533.125ZM533.057 230.867V230.253H533.732V230.867H533.057ZM535.936 235.088C535.603 235.088 535.349 234.994 535.173 234.804C534.997 234.611 534.91 234.32 534.91 233.933V232.063H534.248V231.637H534.91V230.712L535.457 230.556V231.637H536.429V232.063H535.457V233.872C535.457 234.143 535.502 234.336 535.592 234.453C535.686 234.566 535.826 234.622 536.01 234.622C536.096 234.622 536.172 234.615 536.24 234.602C536.308 234.584 536.368 234.564 536.422 234.541V235C536.359 235.027 536.283 235.048 536.193 235.061C536.107 235.079 536.022 235.088 535.936 235.088ZM537 236.56L536.871 236.108C537.083 236.058 537.258 236 537.398 235.932C537.542 235.869 537.661 235.784 537.756 235.676C537.85 235.568 537.932 235.433 537.999 235.27L538.175 234.872L538.161 235.102L536.682 231.637H537.276L538.499 234.615H538.323L539.532 231.637H540.106L538.539 235.311C538.449 235.527 538.35 235.707 538.242 235.851C538.134 236 538.017 236.119 537.891 236.209C537.769 236.304 537.634 236.378 537.486 236.432C537.337 236.486 537.175 236.529 537 236.56Z" fill="#FFAC74"/>
</svg>
