<svg width="278" height="44" viewBox="0 0 278 44" fill="none" xmlns="http://www.w3.org/2000/svg">
<path d="M29.2936 0H61.9606C62.4351 0 62.6728 0.585931 62.3372 0.928613L53.5695 9.8836C52.9453 10.5212 52.0986 10.8794 51.2158 10.8794H22.6362C21.9008 10.8794 21.3047 10.2705 21.3047 9.51946V8.15954C21.3047 3.65315 24.8814 0 29.2936 0Z" fill="white"/>
<path d="M22.2129 42.5892L47.0242 17.2479C47.3597 16.9053 47.1221 16.3193 46.6476 16.3193H2.25605C1.69404 16.3193 1.51519 17.0931 2.01786 17.3498L19.0956 26.0711C20.4489 26.7622 21.3037 28.1749 21.3037 29.7202V42.2045C21.3037 42.6892 21.8774 42.9319 22.2129 42.5892Z" fill="white"/>
<path d="M256.095 7.49227C256.095 7.33204 256.225 7.20215 256.385 7.20215H260.609C260.769 7.20215 260.899 7.33204 260.899 7.49227V15.6C260.899 15.8888 261.299 16.0163 261.488 15.7984C262.159 15.028 263.021 14.369 264.074 13.8214C265.495 13.0973 267.012 12.7352 268.628 12.7352C270.243 12.7352 271.705 13.0834 273.014 13.7797C274.351 14.4481 275.396 15.4089 276.148 16.6623C276.9 17.8877 277.276 19.3081 277.276 20.9235V35.9237C277.276 36.0839 277.146 36.2138 276.985 36.2138H272.761C272.601 36.2138 272.471 36.0839 272.471 35.9237V22.0932C272.471 21.0906 272.262 20.1994 271.845 19.4195C271.455 18.6397 270.884 18.0409 270.132 17.6231C269.38 17.2054 268.516 16.9965 267.542 16.9965C266.233 16.9965 265.077 17.3307 264.074 17.9991C263.071 18.6675 262.292 19.6702 261.735 21.007C261.178 22.3439 260.899 23.9593 260.899 25.8532V35.9237C260.899 36.0839 260.769 36.2138 260.609 36.2138H256.385C256.225 36.2138 256.095 36.0839 256.095 35.9237V7.49227Z" fill="white"/>
<path d="M242.685 36.5472C240.485 36.5472 238.508 36.0459 236.753 35.0432C234.999 34.0127 233.62 32.5923 232.617 30.782C231.615 28.9716 231.113 26.9246 231.113 24.6408C231.113 22.3291 231.615 20.2821 232.617 18.4996C233.62 16.6893 234.999 15.2828 236.753 14.2801C238.508 13.2496 240.485 12.7344 242.685 12.7344C244.635 12.7344 246.362 13.0825 247.866 13.7788C249.37 14.4472 250.595 15.422 251.542 16.7032C252.429 17.8768 252.998 19.2579 253.25 20.8467C253.277 21.0195 253.142 21.1733 252.967 21.1733H248.684C248.548 21.1733 248.431 21.0779 248.396 20.9458C248.091 19.768 247.44 18.7994 246.445 18.04C245.415 17.2323 244.162 16.8285 242.685 16.8285C241.432 16.8285 240.29 17.1627 239.26 17.8312C238.229 18.4996 237.422 19.4187 236.837 20.5884C236.252 21.7582 235.959 23.109 235.959 24.6408C235.959 26.1726 236.252 27.5234 236.837 28.6931C237.422 29.8629 238.229 30.782 239.26 31.4504C240.29 32.1188 241.432 32.453 242.685 32.453C244.273 32.453 245.61 32.0492 246.696 31.2415C247.712 30.46 248.338 29.4834 248.574 28.312C248.603 28.1714 248.724 28.0665 248.867 28.0665H253.178C253.352 28.0665 253.488 28.2187 253.461 28.3907C253.232 29.8762 252.676 31.2164 251.793 32.4113C250.874 33.6924 249.62 34.709 248.033 35.461C246.473 36.1851 244.691 36.5472 242.685 36.5472Z" fill="white"/>
<path d="M207.174 13.3587C207.174 13.1985 207.304 13.0686 207.464 13.0686H211.688C211.848 13.0686 211.978 13.1985 211.978 13.3587V15.5992C211.978 15.888 212.378 16.0154 212.568 15.7976C213.238 15.0271 214.1 14.3681 215.153 13.8206C216.574 13.0964 218.092 12.7344 219.707 12.7344C221.322 12.7344 222.784 13.0825 224.093 13.7788C225.43 14.4472 226.475 15.4081 227.227 16.6614C227.979 17.8869 228.355 19.3073 228.355 20.9226V35.9228C228.355 36.0831 228.225 36.213 228.065 36.213H223.84C223.68 36.213 223.55 36.0831 223.55 35.9228V22.0924C223.55 21.0897 223.341 20.1985 222.924 19.4187C222.534 18.6388 221.963 18.04 221.211 17.6223C220.459 17.2045 219.595 16.9956 218.621 16.9956C217.312 16.9956 216.156 17.3298 215.153 17.9983C214.151 18.6667 213.371 19.6693 212.814 21.0062C212.257 22.343 211.978 23.9445 211.978 25.8105V35.9228C211.978 36.0831 211.848 36.213 211.688 36.213H207.464C207.304 36.213 207.174 36.0831 207.174 35.9228V13.3587Z" fill="white"/>
<path d="M193.317 36.5472C191.005 36.5472 188.972 36.0459 187.217 35.0432C185.49 34.0127 184.153 32.6062 183.207 30.8237C182.26 29.0134 181.786 26.9524 181.786 24.6408C181.786 22.357 182.274 20.3099 183.248 18.4996C184.223 16.6893 185.574 15.2828 187.301 14.2801C189.055 13.2496 191.019 12.7344 193.191 12.7344C195.586 12.7344 197.661 13.2914 199.416 14.4054C201.171 15.5195 202.452 17.0652 203.259 19.0427C204.065 20.9225 204.34 22.9966 204.084 25.2649C204.068 25.4098 203.944 25.5181 203.798 25.5181H184.792C184.632 25.5181 184.502 25.3882 184.502 25.228V22.1736C184.502 22.0134 184.632 21.8835 184.792 21.8835H198.826C198.989 21.8835 199.121 21.7488 199.109 21.586C199.043 20.6495 198.784 19.8156 198.33 19.0845C197.828 18.2768 197.132 17.664 196.241 17.2463C195.35 16.8007 194.333 16.5778 193.191 16.5778C191.799 16.5778 190.601 16.8842 189.598 17.4969C188.596 18.1097 187.83 19.0148 187.301 20.2124C186.772 21.41 186.507 22.8583 186.507 24.5572C186.507 26.2004 186.785 27.6209 187.342 28.8185C187.927 30.0161 188.735 30.9352 189.766 31.5757C190.796 32.1885 191.98 32.4948 193.317 32.4948C194.848 32.4948 196.116 32.1606 197.118 31.4922C198.058 30.8659 198.679 30.0073 198.983 28.9164C199.019 28.7864 199.135 28.6931 199.27 28.6931H203.608C203.794 28.6931 203.932 28.8651 203.885 29.0448C203.533 30.4084 202.92 31.642 202.048 32.7455C201.129 33.9152 199.917 34.8483 198.413 35.5445C196.937 36.213 195.238 36.5472 193.317 36.5472Z" fill="white"/>
<path d="M168.287 36.548C166.7 36.548 165.196 36.2138 163.775 35.5454C162.721 35.0395 161.859 34.4141 161.188 33.669C160.996 33.4558 160.6 33.5846 160.6 33.8716V35.9237C160.6 36.0839 160.47 36.2138 160.31 36.2138H156.086C155.926 36.2138 155.796 36.0839 155.796 35.9237V7.49227C155.796 7.33204 155.926 7.20215 156.086 7.20215H160.31C160.47 7.20215 160.6 7.33204 160.6 7.49227V15.4329C160.6 15.7217 161.001 15.8498 161.192 15.6334C161.863 14.8745 162.724 14.2426 163.775 13.7379C165.196 13.0694 166.714 12.7352 168.329 12.7352C170.501 12.7352 172.423 13.2226 174.094 14.1974C175.793 15.1722 177.102 16.5648 178.021 18.3751C178.968 20.1576 179.442 22.2464 179.442 24.6416C179.442 27.009 178.968 29.0978 178.021 30.9081C177.102 32.7185 175.793 34.111 174.094 35.0858C172.395 36.0606 170.46 36.548 168.287 36.548ZM167.619 32.4121C168.956 32.4121 170.153 32.0918 171.212 31.4512C172.298 30.7828 173.133 29.8637 173.718 28.694C174.303 27.5242 174.595 26.1734 174.595 24.6416C174.595 23.1098 174.303 21.759 173.718 20.5893C173.133 19.4195 172.298 18.5143 171.212 17.8738C170.153 17.2053 168.956 16.8711 167.619 16.8711C166.254 16.8711 165.029 17.2053 163.942 17.8738C162.884 18.5143 162.062 19.4195 161.478 20.5893C160.893 21.759 160.6 23.1098 160.6 24.6416C160.6 26.1734 160.893 27.5242 161.478 28.694C162.062 29.8637 162.884 30.7828 163.942 31.4512C165.029 32.0918 166.254 32.4121 167.619 32.4121Z" fill="white"/>
<path d="M149.345 36.5063C147.953 36.5063 146.714 36.2278 145.627 35.6708C144.541 35.1137 143.678 34.2921 143.037 33.2059C142.424 32.0919 142.118 30.755 142.118 29.1954V7.49227C142.118 7.33204 142.248 7.20215 142.408 7.20215H146.591C146.751 7.20215 146.881 7.33204 146.881 7.49227V28.7776C146.881 29.9195 147.159 30.8107 147.716 31.4513C148.273 32.064 149.025 32.3704 149.972 32.3704C150.362 32.3704 150.766 32.3286 151.184 32.2451C151.452 32.1914 151.709 32.1262 151.954 32.0495C152.149 31.9888 152.353 32.1297 152.353 32.3333V35.7579C152.353 35.8809 152.276 35.991 152.159 36.0292C151.747 36.1637 151.324 36.267 150.891 36.3392C150.418 36.4506 149.902 36.5063 149.345 36.5063ZM138.692 13.3596C138.692 13.1994 138.822 13.0695 138.982 13.0695H151.729C151.889 13.0695 152.019 13.1994 152.019 13.3596V16.6646C152.019 16.8248 151.889 16.9547 151.729 16.9547H138.983C138.822 16.9547 138.692 16.8248 138.692 16.6646V13.3596Z" fill="white"/>
<path d="M128.201 36.5472C126.391 36.5472 124.789 36.2269 123.397 35.5863C122.004 34.9179 120.89 33.9988 120.055 32.829C119.3 31.7102 118.862 30.4333 118.739 28.9985C118.725 28.8328 118.858 28.6931 119.024 28.6931H123.125C123.278 28.6931 123.404 28.8118 123.421 28.9636C123.55 30.0875 124.001 30.9721 124.775 31.6175C125.639 32.2859 126.781 32.6202 128.201 32.6202C129.454 32.6202 130.443 32.3416 131.167 31.7846C131.891 31.2276 132.253 30.4617 132.253 29.4869C132.253 28.8185 132.031 28.2754 131.585 27.8576C131.139 27.412 130.568 27.0778 129.872 26.8549C129.204 26.6043 128.271 26.3118 127.073 25.9776C125.43 25.5599 124.093 25.1421 123.063 24.7243C122.06 24.3066 121.183 23.666 120.431 22.8026C119.706 21.9114 119.344 20.7138 119.344 19.2098C119.344 17.9843 119.679 16.8842 120.347 15.9094C121.015 14.9068 121.962 14.1269 123.188 13.5699C124.441 13.0129 125.848 12.7344 127.407 12.7344C129.162 12.7344 130.694 13.0129 132.003 13.5699C133.312 14.1269 134.342 14.9485 135.094 16.0347C135.791 17.015 136.224 18.1625 136.395 19.4772C136.417 19.647 136.283 19.7947 136.112 19.7947H132.041C131.898 19.7947 131.778 19.6911 131.748 19.552C131.551 18.6387 131.107 17.9259 130.415 17.4134C129.663 16.8285 128.675 16.5361 127.449 16.5361C126.391 16.5361 125.541 16.7589 124.901 17.2045C124.26 17.6501 123.94 18.2628 123.94 19.0427C123.94 19.6276 124.149 20.101 124.567 20.4631C124.984 20.8252 125.5 21.1176 126.112 21.3404C126.725 21.5354 127.602 21.786 128.744 22.0924C130.471 22.4823 131.864 22.9001 132.922 23.3457C134.008 23.7635 134.941 24.4597 135.721 25.4345C136.529 26.3815 136.932 27.6905 136.932 29.3616C136.932 30.8098 136.556 32.0771 135.804 33.1632C135.08 34.2216 134.05 35.0571 132.713 35.6699C131.404 36.2547 129.9 36.5472 128.201 36.5472Z" fill="white"/>
<path d="M102.424 13.3587C102.424 13.1985 102.554 13.0686 102.714 13.0686H106.938C107.098 13.0686 107.228 13.1985 107.228 13.3587V15.516C107.228 15.8221 107.694 15.9483 107.881 15.7061C108.432 14.9931 109.148 14.3785 110.027 13.8623C111.308 13.1104 112.659 12.7344 114.08 12.7344C115.08 12.7344 115.938 12.8642 116.655 13.1239C116.766 13.1641 116.837 13.271 116.837 13.389V17.3793C116.837 17.5795 116.639 17.7197 116.447 17.6622C116.097 17.5571 115.739 17.4742 115.375 17.4134C114.873 17.302 114.33 17.2463 113.745 17.2463C112.492 17.2463 111.378 17.6223 110.403 18.3742C109.428 19.1262 108.649 20.2821 108.064 21.8417C107.507 23.4014 107.228 25.3092 107.228 27.5652V35.9228C107.228 36.0831 107.098 36.213 106.938 36.213H102.714C102.554 36.213 102.424 36.0831 102.424 35.9228V13.3587Z" fill="white"/>
<path d="M93.8912 15.1025C93.8912 14.9423 94.0211 14.8124 94.1814 14.8124H98.1636C98.3239 14.8124 98.4538 14.9423 98.4538 15.1025V35.9237C98.4538 36.0839 98.3239 36.2138 98.1636 36.2138H94.1814C94.0211 36.2138 93.8912 36.084 93.8912 35.9237V15.1025ZM93.8516 7.49227C93.8516 7.33204 93.9815 7.20215 94.1417 7.20215H98.2033C98.3635 7.20215 98.4934 7.33204 98.4934 7.49227V11.3546C98.4934 11.5148 98.3635 11.6447 98.2033 11.6447H94.1417C93.9815 11.6447 93.8516 11.5148 93.8516 11.3546V7.49227Z" fill="white"/>
<path d="M71.2451 7.25984C71.2451 7.09962 71.375 6.96973 71.5352 6.96973H90.3812C90.5415 6.96973 90.6713 7.09962 90.6713 7.25984V10.8991C90.6713 11.0593 90.5415 11.1892 90.3812 11.1892H76.4649C76.3047 11.1892 76.1748 11.3191 76.1748 11.4793V18.5442C76.1748 18.7045 76.3047 18.8343 76.4649 18.8343H87.6657C87.826 18.8343 87.9559 18.9642 87.9559 19.1245V22.7637C87.9559 22.9239 87.826 23.0538 87.6657 23.0538H76.4649C76.3047 23.0538 76.1748 23.1837 76.1748 23.3439V35.9234C76.1748 36.0836 76.0449 36.2135 75.8847 36.2135H71.5352C71.375 36.2135 71.2451 36.0836 71.2451 35.9234V7.25984Z" fill="white"/>
</svg>
